.
..............................Site Info...........................

 -   http://www.scenetime.com  *_*   

SceneTime is going to Close sign up on march/1, hurry up! get in before the doors are closed.

     We care to share . Join us on  http://www.scenetime.com 

    Be the first to get new release at  http://www.scenetime.com

        Seed back for speed


...................................NFO:.................................................








































          
          
              
              
                    
                    
                    
                    
xXx.2002.DVDRiP.AC3-5.1.XviD-SiC

Poster:
[img]http://img20.imageshack.us/img20/1982/xxxnu.png[/img]

IMDB Link: 
http://www.imdb.com/title/tt0295701

Description:
Xander Cage is your standard adrenaline junkie with no fear and a lousy attitude. When the US Government "recruits" him to go on a mission, he's not exactly thrilled. His mission: to gather information on an organization that may just be planning the destruction of the world, led by the nihilistic Yorgi.

Action | Adventure | Thriller | Crime

General:
Complete name                            : xXx.2002.DVDRiP.AC3-5.1.XviD-SiC.avi
Format                                   : AVI
Format/Info                              : Audio Video Interleave
File size                                : 2.00 GiB
Duration                                 : 2h 4mn
Overall bit rate                         : 2 307 Kbps

Video
ID                                       : 0
Format                                   : MPEG-4 Visual
Format profile                           : Advanced Simple@L5
Format settings, BVOP                    : 3
Format settings, QPel                    : No
Format settings, GMC                     : No warppoints
Format settings, Matrix                  : Default (H.263)
Codec ID                                 : XVID
Codec ID/Hint                            : XviD
Duration                                 : 2h 4mn
Bit rate                                 : 1 914 Kbps
Width                                    : 720 pixels
Height                                   : 304 pixels
Display aspect ratio                     : 2.35:1
Frame rate                               : 23.976 fps
Color space                              : YUV
Chroma subsampling                       : 4:2:0
Bit depth                                : 8 bits
Scan type                                : Progressive
Compression mode                         : Lossy
Bits/(Pixel*Frame)                       : 0.365
Stream size                              : 1.66 GiB (83%)
Writing library                          : XviD 1.2.1 (UTC 2008-12-04)

Audio
ID                                       : 1
Format                                   : AC-3
Format/Info                              : Audio Coding 3
Mode extension                           : CM (complete main)
Codec ID                                 : 2000
Duration                                 : 2h 4mn
Bit rate mode                            : Constant
Bit rate                                 : 384 Kbps
Channel(s)                               : 6 channels
Channel positions                        : Front: L C R, Side: L R, LFE
Sampling rate                            : 48.0 KHz
Bit depth                                : 16 bits
Compression mode                         : Lossy
Stream size                              : 341 MiB (17%)
Alignment                                : Split accross interleaves
Interleave, duration                     : 42 ms (1.00 video frame)
Interleave, preload duration             : 500 ms

Screenshots:
[IMG]http://img594.imageshack.us/img594/4076/vlcsnap2012022320h45m25.png[/IMG]
[IMG]http://img100.imageshack.us/img100/2959/vlcsnap2012022320h45m45.png[/IMG]
[IMG]http://img109.imageshack.us/img109/4154/vlcsnap2012022320h45m32.png[/IMG]
[IMG]http://img405.imageshack.us/img405/4044/vlcsnap2012022320h48m18.png[/IMG]
[IMG]http://img857.imageshack.us/img857/9611/vlcsnap2012022320h46m43.png[/IMG]
[IMG]http://img72.imageshack.us/img72/547/vlcsnap2012022320h46m14.png[/IMG]
[IMG]http://img638.imageshack.us/img638/1828/vlcsnap2012022320h46m27.png[/IMG]
[IMG]http://img843.imageshack.us/img843/1894/vlcsnap2012022320h46m23.png[/IMG]

Note:  Normal stuff applied, turned out nice:)

Source:  Ours

Enjoy!

Respects to T00NG0D, ELEKTRI4KA, PA, YeFsTe, MrRep and everyone in the struggle...